<svg width="56" height="56" viewBox="0 0 56 56" fill="none" xmlns="http://www.w3.org/2000/svg">
<g id="Frame">
<g id="SVGRepo_iconCarrier">
<g id="free-shipping">
<path id="Vector" d="M47.1932 41.6169H53.376V32.5204L47.251 29.5055L43.2925 21.7196H34.2773" stroke="#E67529" stroke-width="2" stroke-linecap="round" stroke-linejoin="round"/>
<path id="Vector_2" d="M18.0879 41.6169H38.6643" stroke="#E67529" stroke-width="2" stroke-linecap="round" stroke-linejoin="round"/>
<path id="Vector_3" d="M9.4045 15.6639H2.625V41.617H9.53225" stroke="#E67529" stroke-width="2" stroke-linecap="round" stroke-linejoin="round"/>
<path id="Vector_4" d="M34.1248 37.2915V15.6639H28.1406" stroke="#E67529" stroke-width="2" stroke-linecap="round" stroke-linejoin="round"/>
<path id="Vector_5" d="M37.625 32.9659H39.375" stroke="#E67529" stroke-width="2" stroke-linecap="round" stroke-linejoin="round"/>
<path id="Vector_6" d="M42.9453 46.375C45.2407 46.375 47.1016 44.5352 47.1016 42.2657C47.1016 39.9963 45.2407 38.1565 42.9453 38.1565C40.6499 38.1565 38.7891 39.9963 38.7891 42.2657C38.7891 44.5352 40.6499 46.375 42.9453 46.375Z" stroke="#E67529" stroke-width="2" stroke-linecap="round" stroke-linejoin="round"/>
<path id="Vector_7" d="M13.7734 46.375C16.0689 46.375 17.9297 44.5352 17.9297 42.2657C17.9297 39.9963 16.0689 38.1565 13.7734 38.1565C11.478 38.1565 9.61719 39.9963 9.61719 42.2657C9.61719 44.5352 11.478 46.375 13.7734 46.375Z" stroke="#E67529" stroke-width="2" stroke-linecap="round" stroke-linejoin="round"/>
<path id="Vector_8" d="M22.75 26.9102H20.125V32.1008H22.75" stroke="#E67529" stroke-width="2" stroke-linecap="round" stroke-linejoin="round"/>
<path id="Vector_9" d="M22.75 29.5056H20.125" stroke="#E67529" stroke-width="2" stroke-linecap="round" stroke-linejoin="round"/>
<path id="Vector_10" d="M28 26.9102H25.375V32.1008H28" stroke="#E67529" stroke-width="2" stroke-linecap="round" stroke-linejoin="round"/>
<path id="Vector_11" d="M28 29.5056H25.375" stroke="#E67529" stroke-width="2" stroke-linecap="round" stroke-linejoin="round"/>
<path id="Vector_12" d="M11.375 26.9102H8.75V32.1008" stroke="#E67529" stroke-width="2" stroke-linecap="round" stroke-linejoin="round"/>
<path id="Vector_13" d="M11.375 29.5056H8.75" stroke="#E67529" stroke-width="2" stroke-linecap="round" stroke-linejoin="round"/>
<path id="Vector_14" d="M14 32.1008V26.9102H16.3134C16.6281 26.9102 16.9299 27.0338 17.1524 27.2539C17.375 27.4739 17.5 27.7722 17.5 28.0834V28.3324C17.5 28.6435 17.375 28.9419 17.1524 29.1619C16.9299 29.3819 16.6281 29.5055 16.3134 29.5055H14.875L17.5 32.1008" stroke="#E67529" stroke-width="2" stroke-linecap="round" stroke-linejoin="round"/>
<path id="Vector_15" d="M27.6105 14.583L24.169 10.3299C23.9103 9.99524 23.5409 9.7612 23.1253 9.66876C22.7097 9.57632 22.2744 9.63135 21.8957 9.82423C21.6729 9.9464 21.4798 10.1152 21.3298 10.3188C21.1798 10.5223 21.0765 10.7559 21.0272 11.003C20.9779 11.2501 20.9837 11.5049 21.0443 11.7495C21.1048 11.9942 21.2187 12.2229 21.3778 12.4195L22.6028 13.9335H11.3691C10.905 13.9335 10.4599 14.1157 10.1317 14.4402C9.80351 14.7647 9.61914 15.2048 9.61914 15.6637C9.61914 16.1225 9.80351 16.5626 10.1317 16.8871C10.4599 17.2116 10.905 17.3939 11.3691 17.3939H22.6032L21.4508 18.818C21.1454 19.1876 20.9983 19.6606 21.041 20.136C21.0837 20.6113 21.3127 21.0513 21.6791 21.362C22.0424 21.6375 22.5005 21.7612 22.955 21.7067C23.4096 21.6521 23.8244 21.4236 24.1105 21.0701L27.6105 16.7446C27.8587 16.4378 27.9939 16.0567 27.9939 15.6638C27.9939 15.2709 27.8587 14.8898 27.6105 14.583Z" stroke="#E67529" stroke-width="2" stroke-linecap="round" stroke-linejoin="round"/>
<path id="Vector_16" d="M34.125 29.5056H47.25" stroke="#E67529" stroke-width="2" stroke-linejoin="round"/>
<path id="Vector_17" d="M2.625 38.1566H53.375" stroke="#E67529" stroke-width="2" stroke-linejoin="round"/>
</g>
</g>
</g>
</svg>
