<svg width="56" height="56" viewBox="0 0 56 56" fill="none" xmlns="http://www.w3.org/2000/svg">
<g id="Frame">
<g id="SVGRepo_iconCarrier">
<g id="b">
<path id="Vector" d="M50.7013 26.661C50.3629 21.9681 46.5847 19.9199 45.5 19.426V14.4374C45.5 12.749 44.126 11.3749 42.4375 11.3749H8.3125C6.62401 11.3749 5.25 12.749 5.25 14.4374V31.9374C5.25 33.6259 6.62401 34.9999 8.3125 34.9999H25.4805C24.8811 35.5895 24.289 36.2262 23.725 36.9088C23.5918 37.0704 23.5918 37.3044 23.725 37.466C27.4481 41.9751 32.4083 44.4745 32.6177 44.5787C32.6792 44.6095 32.7459 44.6249 32.8126 44.6249C32.8925 44.6249 32.9728 44.6026 33.0429 44.5591C33.172 44.4796 33.2501 44.3386 33.2501 44.1874V42.0118C35.0253 42.0461 41.4224 41.9665 44.9768 39.5364C47.3446 37.9171 51.237 34.0916 50.7013 26.661ZM8.3125 34.125C7.1064 34.125 6.125 33.1441 6.125 31.9375V14.4375C6.125 13.231 7.1064 12.25 8.3125 12.25H42.4375C43.6436 12.25 44.625 13.231 44.625 14.4375L44.6271 19.6713C44.6241 19.7012 44.6241 19.7311 44.6271 19.7609L44.6292 24.2829C44.6233 24.3256 43.9789 28.5708 38.479 31.1753C36.5418 32.0939 34.2044 32.3067 33.2499 32.3562V30.1875C33.2499 30.0362 33.1717 29.8953 33.0427 29.8158C32.9141 29.7364 32.753 29.7278 32.6176 29.7961C32.4561 29.8765 29.4753 31.3778 26.4128 34.125H8.3125ZM44.4827 38.8136C40.6585 41.4293 32.9095 41.131 32.8313 41.125C32.7151 41.1268 32.5963 41.1643 32.51 41.2464C32.4237 41.3293 32.375 41.4429 32.375 41.5625V43.4527C30.9583 42.6512 27.4369 40.4697 24.6337 37.1875C27.4369 33.9054 30.9582 31.7239 32.375 30.9224V32.8082C32.375 33.0501 32.5707 33.2457 32.8125 33.2457C32.9488 33.2457 36.1848 33.2312 38.8538 31.9666C44.7766 29.1612 45.4692 24.5958 45.5 24.3428V20.3959C46.7433 21.0385 49.5533 22.903 49.8289 26.7243C50.3331 33.7183 46.6959 37.3012 44.4827 38.8136ZM28.0705 26.4175C28.5995 25.5049 28.5653 24.4283 27.9766 23.4626C27.5958 22.8372 26.923 22.3911 26.2688 21.9579C25.6621 21.5546 25.3178 21.2905 25.2695 21.2521C25.2532 21.141 25.2908 21.0385 25.3319 20.9915C25.3455 20.9752 25.3579 20.9615 25.419 20.9572C25.5677 20.959 25.654 21.0546 25.6536 21.0538C26.0565 21.6118 26.844 21.7682 27.4467 21.4093C28.0431 21.0546 28.2256 20.3146 27.8706 19.6874C27.6012 19.2114 26.8473 18.5635 25.7608 18.4604C25.7469 18.3959 25.7355 18.3406 25.7318 18.3077C25.6685 17.9192 25.0747 17.9262 25.0138 18.3077L24.9774 18.4936C24.3152 18.5967 23.7223 18.9004 23.2961 19.3874C22.7676 19.9924 22.5322 20.7982 22.6501 21.598C22.8155 22.7294 23.8913 23.4429 24.7581 24.0188C25.029 24.1982 25.593 24.5725 25.6869 24.7204C25.7681 24.8536 25.8455 25.0467 25.7527 25.2057C25.6797 25.3322 25.5233 25.4125 25.3178 25.427C25.1473 25.4304 24.8512 25.1733 24.7325 24.9913C24.3604 24.4025 23.5755 24.2086 22.9441 24.5478C22.3575 24.8639 22.1507 25.5347 22.4297 26.2175C22.7392 26.9733 23.7682 27.7757 24.9692 27.91L25.0138 28.1382C25.0747 28.5197 25.6685 28.5267 25.7318 28.1382C25.7373 28.0892 25.7595 27.9895 25.7828 27.8813C26.7607 27.7369 27.6075 27.2152 28.0705 26.4175ZM23.2397 25.886C23.1888 25.7621 23.0991 25.4588 23.3593 25.3187C23.4336 25.2785 23.5165 25.2588 23.5981 25.2588C23.757 25.2588 23.9125 25.3323 23.9967 25.4648C24.0027 25.4734 24.5872 26.3535 25.3839 26.2996C25.8782 26.2654 26.2889 26.0271 26.5093 25.6451C26.7468 25.2367 26.719 24.7343 26.4341 24.266C26.2585 23.978 25.8296 23.6798 25.2391 23.2875C24.4825 22.786 23.6246 22.2169 23.5156 21.4709C23.4353 20.9249 23.5951 20.3746 23.9544 19.9635C24.2808 19.5909 24.7543 19.3645 25.287 19.3261C26.2833 19.2483 26.9447 19.8285 27.1092 20.1182C27.2015 20.2823 27.2288 20.5215 26.9998 20.6574C26.7904 20.7822 26.4982 20.7283 26.3538 20.5301C26.2653 20.4164 25.927 20.0404 25.3608 20.084C25.0793 20.1045 24.8477 20.2156 24.6726 20.4164C24.4529 20.6685 24.3526 21.0282 24.4038 21.3794C24.4585 21.7486 24.8738 22.081 25.7885 22.6894C26.3593 23.0679 26.9497 23.4593 27.2292 23.9182C27.6458 24.6009 27.6765 25.352 27.3134 25.9783C26.9537 26.5987 26.2589 27.002 25.4527 27.0576C24.3923 27.1293 23.4498 26.4004 23.2397 25.886ZM15.7496 21.4734C14.7844 21.4734 13.9996 22.2587 13.9996 23.2234C13.9996 24.1881 14.7844 24.9734 15.7496 24.9734C16.7147 24.9734 17.4996 24.1881 17.4996 23.2234C17.4996 22.2587 16.7147 21.4734 15.7496 21.4734ZM15.7496 24.0984C15.2672 24.0984 14.8746 23.7062 14.8746 23.2234C14.8746 22.7406 15.2672 22.3484 15.7496 22.3484C16.232 22.3484 16.6246 22.7406 16.6246 23.2234C16.6246 23.7062 16.232 24.0984 15.7496 24.0984ZM35.0004 24.9734C35.9656 24.9734 36.7504 24.1881 36.7504 23.2234C36.7504 22.2587 35.9656 21.4734 35.0004 21.4734C34.0353 21.4734 33.2504 22.2587 33.2504 23.2234C33.2504 24.1881 34.0353 24.9734 35.0004 24.9734ZM35.0004 22.3484C35.4828 22.3484 35.8754 22.7406 35.8754 23.2234C35.8754 23.7062 35.4828 24.0984 35.0004 24.0984C34.5181 24.0984 34.1254 23.7062 34.1254 23.2234C34.1254 22.7406 34.5181 22.3484 35.0004 22.3484Z" fill="#E67529"/>
</g>
</g>
</g>
</svg>
