<svg width="56" height="56" viewBox="0 0 56 56" fill="none" xmlns="http://www.w3.org/2000/svg">
<g id="Frame">
<g id="SVGRepo_iconCarrier">
<path id="Vector" d="M27.7734 6.29129L11.6909 12.9938C11.5298 13.06 11.392 13.1728 11.2954 13.3178C11.1987 13.4628 11.1476 13.6333 11.1484 13.8075V28.0963C11.149 31.5677 12.0519 34.9793 13.7683 37.9965C15.4848 41.0138 17.9561 43.5332 20.9397 45.3075L28.0972 49.56L35.1497 45.3163C38.1093 43.5377 40.5584 41.0237 42.2588 38.0185C43.9592 35.0133 44.853 31.6192 44.8534 28.1663V12.985C44.854 12.8063 44.7998 12.6316 44.6981 12.4845C44.5965 12.3375 44.4522 12.2251 44.2847 12.1625L28.4209 6.28254C28.2119 6.20254 27.9802 6.20568 27.7734 6.29129Z" stroke="#E67529" stroke-width="3"/>
<path id="Vector_2" d="M19.2596 29.3125L25.7609 34.23L37.2409 18.1038" stroke="#E67529" stroke-width="3"/>
</g>
</g>
</svg>
